# xmcd
#
# Track frame offsets: 
#        150
#        9387
#        16990
#        25557
#        37165
#        46830
#        58207
#        71012
#        83770
#        96630
#        109470
#        123505
#        133750
#        146740
#        160295
#
# Disc length: 2317 seconds
#
# Revision: 6
# Processed by: cddbd v1.5.2PL0 Copyright (c) Steve Scherf et al.
# Submitted via: ExactAudioCopy v0.99pb5
#
DISCID=d5090b0f
DTITLE=Various Artist - Classic Country - TL 626-11 - '50s Legends - CD 2
DYEAR=2000
DGENRE=Country
TTITLE0=Everly Brothers - Wake up Little Susie
TTITLE1=Johnny Cash - Come in stranger
TTITLE2=Ricky Nelson - Stood up
TTITLE3=Ray Price - Crazy arms
TTITLE4=Marty Robbins - Just married
TTITLE5=Jim Reeves - Anna Marie
TTITLE6=Hank Snow and Rainbow Ranch Boys - I'm movin' on
TTITLE7=Slim Whitman - Secret love
TTITLE8=Carl Smith - Let old mother nature have her way
TTITLE9=Moon Mulligan - Mona Lisa
TTITLE10=Eddy Arnold - Tennessee stud
TTITLE11=Hank Thompson - Rub-a-dub-dub
TTITLE12=Tennessee Ernie Ford - Ballad of Davy Crockett
TTITLE13=Ernest Tubb and Red Foley - Goodnight Irene
TTITLE14=Hank Williams - Hey, good lookin'
EXTD=
EXTT0=
EXTT1=
EXTT2=
EXTT3=
EXTT4=
EXTT5=
EXTT6=
EXTT7=
EXTT8=
EXTT9=
EXTT10=
EXTT11=
EXTT12=
EXTT13=
EXTT14=
PLAYORDER=
